<svg xmlns="http://www.w3.org/2000/svg" viewBox="0 0 800 400" width="800" height="400"><rect x="0" y="0" width="800" height="400" rx="0" fill="#EEF3FA" /><circle cx="650" cy="80" r="34" fill="#FFE7B3" /><circle cx="90" cy="70" r="18.0" fill="#FFFFFF" /><circle cx="110.0" cy="64.0" r="24.0" fill="#FFFFFF" /><circle cx="134.0" cy="72.0" r="16.0" fill="#FFFFFF" /><rect x="84.0" y="70" width="60.0" height="16.0" rx="8" fill="#FFFFFF" /><circle cx="520" cy="50" r="14.4" fill="#FFFFFF" /><circle cx="536.0" cy="45.2" r="19.200000000000003" fill="#FFFFFF" /><circle cx="555.2" cy="51.6" r="12.8" fill="#FFFFFF" /><rect x="515.2" y="50" width="48.0" height="12.8" rx="8" fill="#FFFFFF" /><rect x="0" y="330" width="800" height="70" rx="0" fill="#DCE6F5" /><rect x="560" y="132" width="190" height="198" rx="4" fill="#FFFFFF" /><rect x="560" y="122" width="190" height="12" rx="2" fill="#1F4E9C" /><rect x="568" y="128" width="174" height="4" rx="0" fill="#163B78" /><rect x="704" y="88" width="30" height="30" rx="4" fill="#B8C2D3" /><rect x="710" y="118" width="4" height="6" rx="0" fill="#B8C2D3" /><rect x="724" y="118" width="4" height="6" rx="0" fill="#B8C2D3" /><rect x="712" y="82" width="14" height="8" rx="2" fill="#163B78" /><rect x="560" y="192" width="190" height="4" rx="0" fill="#C9D8EE" /><rect x="570.0" y="192" width="3" height="-12" rx="0" fill="#C9D8EE" /><rect x="598.3333333333334" y="192" width="3" height="-12" rx="0" fill="#C9D8EE" /><rect x="626.6666666666666" y="192" width="3" height="-12" rx="0" fill="#C9D8EE" /><rect x="655.0" y="192" width="3" height="-12" rx="0" fill="#C9D8EE" /><rect x="683.3333333333334" y="192" width="3" height="-12" rx="0" fill="#C9D8EE" /><rect x="711.6666666666666" y="192" width="3" height="-12" rx="0" fill="#C9D8EE" /><rect x="578" y="156" width="65.0" height="30" rx="2" fill="#C9D8EE" /><rect x="667.0" y="156" width="65.0" height="30" rx="2" fill="#C9D8EE" /><rect x="609.5" y="156" width="2" height="30" rx="0" fill="#FFFFFF" /><rect x="698.5" y="156" width="2" height="30" rx="0" fill="#FFFFFF" /><rect x="560" y="254" width="190" height="4" rx="0" fill="#C9D8EE" /><rect x="570.0" y="254" width="3" height="-12" rx="0" fill="#C9D8EE" /><rect x="598.3333333333334" y="254" width="3" height="-12" rx="0" fill="#C9D8EE" /><rect x="626.6666666666666" y="254" width="3" height="-12" rx="0" fill="#C9D8EE" /><rect x="655.0" y="254" width="3" height="-12" rx="0" fill="#C9D8EE" /><rect x="683.3333333333334" y="254" width="3" height="-12" rx="0" fill="#C9D8EE" /><rect x="711.6666666666666" y="254" width="3" height="-12" rx="0" fill="#C9D8EE" /><rect x="578" y="218" width="65.0" height="30" rx="2" fill="#C9D8EE" /><rect x="667.0" y="218" width="65.0" height="30" rx="2" fill="#C9D8EE" /><rect x="609.5" y="218" width="2" height="30" rx="0" fill="#FFFFFF" /><rect x="698.5" y="218" width="2" height="30" rx="0" fill="#FFFFFF" /><rect x="560" y="268" width="190" height="62" rx="0" fill="#163B78" /><path d="M576.0 330 V298 a37.5 37.5 0 0 1 75.0 0 V330 Z" fill="#DCE6F5" /><path d="M659.0 330 V298 a37.5 37.5 0 0 1 75.0 0 V330 Z" fill="#DCE6F5" /><rect x="639.0" y="292" width="32" height="38" rx="2" fill="#C99A6B" /><circle cx="664.0" cy="312" r="2.5" fill="#222831" /><rect x="720" y="248" width="18" height="8" rx="1" fill="#E9A24C" /><rect x="150" y="260" width="300" height="14" rx="4" fill="#C99A6B" /><rect x="170" y="274" width="14" height="56" rx="0" fill="#C99A6B" /><rect x="416" y="274" width="14" height="56" rx="0" fill="#C99A6B" /><rect x="254" y="176" width="100" height="90" rx="4" fill="#E2DDD1" /><rect x="250" y="170" width="100" height="90" rx="4" fill="#FFFFFF" stroke="#C9D8EE" stroke-width="2"/><rect x="262" y="188" width="42.0" height="5" rx="2" fill="#1F4E9C" /><rect x="262" y="204" width="62.0" height="5" rx="2" fill="#C9D8EE" /><rect x="262" y="220" width="62.0" height="5" rx="2" fill="#C9D8EE" /><rect x="262" y="236" width="62.0" height="5" rx="2" fill="#C9D8EE" /><g transform="rotate(-12 325 233)"><rect x="310" y="218" width="30" height="30" rx="3" fill="none" stroke="#C8402F" stroke-width="3"/><text x="325" y="240" font-size="16" fill="#C8402F" font-family="Noto Sans TC, PingFang TC, sans-serif" text-anchor="middle" font-weight="700">約</text></g><rect x="118.625" y="271.0" width="17.099999999999998" height="63.0" rx="4" fill="#222831" /><rect x="144.275" y="271.0" width="17.099999999999998" height="63.0" rx="4" fill="#222831" /><rect x="115.775" y="326" width="22.8" height="8" rx="3" fill="#222831" /><rect x="141.425" y="326" width="22.8" height="8" rx="3" fill="#222831" /><rect x="111.5" y="226.0" width="57.0" height="51.00000000000001" rx="14.25" fill="#1F4E9C" /><rect x="99.53" y="229.0" width="11.969999999999999" height="39.0" rx="5.7" fill="#1F4E9C" /><rect x="168.5" y="229.0" width="11.969999999999999" height="39.0" rx="5.7" fill="#1F4E9C" /><circle cx="105.515" cy="269.5" r="6.2700000000000005" fill="#F3C9A2" /><circle cx="174.485" cy="269.5" r="6.2700000000000005" fill="#F3C9A2" /><rect x="133.175" y="217.0" width="13.649999999999999" height="13.5" rx="3" fill="#F3C9A2" /><circle cx="140" cy="205.0" r="19.5" fill="#F3C9A2" /><path d="M120.5 205.0 a19.5 19.5 0 0 1 39.0 0 v-2.925 a19.5 17.55 0 0 0 -39.0 0 Z" fill="#2B2B33" /><path d="M120.5 205.0 a19.5 19.5 0 0 1 39.0 0 l0 4 a19.5 11.7 0 0 0 -39.0 0 Z" fill="#2B2B33" /><circle cx="133.175" cy="206.5" r="1.6" fill="#222831" /><circle cx="146.825" cy="206.5" r="1.6" fill="#222831" /><path d="M134.15 211.825 q5.85 4.875 11.7 0" fill="none" stroke="#222831" stroke-width="1.5" stroke-linecap="round"/><rect x="448.625" y="271.0" width="17.099999999999998" height="63.0" rx="4" fill="#222831" /><rect x="474.275" y="271.0" width="17.099999999999998" height="63.0" rx="4" fill="#222831" /><rect x="445.775" y="326" width="22.8" height="8" rx="3" fill="#222831" /><rect x="471.425" y="326" width="22.8" height="8" rx="3" fill="#222831" /><rect x="441.5" y="226.0" width="57.0" height="51.00000000000001" rx="14.25" fill="#5B7BB5" /><rect x="429.53" y="229.0" width="11.969999999999999" height="39.0" rx="5.7" fill="#5B7BB5" /><rect x="498.5" y="229.0" width="11.969999999999999" height="39.0" rx="5.7" fill="#5B7BB5" /><circle cx="435.515" cy="269.5" r="6.2700000000000005" fill="#F3C9A2" /><circle cx="504.485" cy="269.5" r="6.2700000000000005" fill="#F3C9A2" /><rect x="463.175" y="217.0" width="13.649999999999999" height="13.5" rx="3" fill="#F3C9A2" /><circle cx="470" cy="205.0" r="19.5" fill="#F3C9A2" /><path d="M449.525 222.55 v-17.55 a20.475 20.475 0 0 1 40.95 0 v17.55 h-6.824999999999999 v-11.7 h-27.299999999999997 v11.7 Z" fill="#2B2B33" /><circle cx="463.175" cy="206.5" r="1.6" fill="#222831" /><circle cx="476.825" cy="206.5" r="1.6" fill="#222831" /><path d="M464.15 211.825 q5.85 4.875 11.7 0" fill="none" stroke="#222831" stroke-width="1.5" stroke-linecap="round"/><g transform="rotate(20 330 230)"><circle cx="330" cy="230" r="12.8" fill="#D9B25C" /><circle cx="330" cy="230" r="5.6000000000000005" fill="#FFFFFF" /><rect x="339.6" y="226.8" width="36.800000000000004" height="6.4" rx="3" fill="#D9B25C" /><rect x="366.8" y="233.2" width="4.800000000000001" height="8.0" rx="0" fill="#D9B25C" /><rect x="357.2" y="233.2" width="4.800000000000001" height="6.4" rx="0" fill="#D9B25C" /></g></svg>